<svg id="visual" viewBox="0 0 900 450" width="900" height="450" xmlns="http://www.w3.org/2000/svg" xmlns:xlink="http://www.w3.org/1999/xlink" version="1.1"><path d="M0 288L25 289.5C50 291 100 294 150 293.5C200 293 250 289 300 287.2C350 285.3 400 285.7 450 283.2C500 280.7 550 275.3 600 279.2C650 283 700 296 750 295.5C800 295 850 281 875 274L900 267L900 451L875 451C850 451 800 451 750 451C700 451 650 451 600 451C550 451 500 451 450 451C400 451 350 451 300 451C250 451 200 451 150 451C100 451 50 451 25 451L0 451Z" fill="#c7e4e8"></path><path d="M0 331L25 331.8C50 332.7 100 334.3 150 333C200 331.7 250 327.3 300 325.7C350 324 400 325 450 330.3C500 335.7 550 345.3 600 348.8C650 352.3 700 349.7 750 351.2C800 352.7 850 358.3 875 361.2L900 364L900 451L875 451C850 451 800 451 750 451C700 451 650 451 600 451C550 451 500 451 450 451C400 451 350 451 300 451C250 451 200 451 150 451C100 451 50 451 25 451L0 451Z" fill="#adc1c4"></path><path d="M0 366L25 374.3C50 382.7 100 399.3 150 405.5C200 411.7 250 407.3 300 399.2C350 391 400 379 450 376.2C500 373.3 550 379.7 600 385.8C650 392 700 398 750 399.3C800 400.7 850 397.3 875 395.7L900 394L900 451L875 451C850 451 800 451 750 451C700 451 650 451 600 451C550 451 500 451 450 451C400 451 350 451 300 451C250 451 200 451 150 451C100 451 50 451 25 451L0 451Z" fill="#939fa1"></path></svg>