<svg id="visual" viewBox="0 0 900 600" width="900" height="600" xmlns="http://www.w3.org/2000/svg" xmlns:xlink="http://www.w3.org/1999/xlink" version="1.1"><rect x="0" y="0" width="900" height="600" fill="#C7E4E8"></rect><path d="M0 488L21.5 490.7C43 493.3 86 498.7 128.8 496.2C171.7 493.7 214.3 483.3 257.2 465.2C300 447 343 421 385.8 418.8C428.7 416.7 471.3 438.3 514.2 457.5C557 476.7 600 493.3 642.8 494.8C685.7 496.3 728.3 482.7 771.2 474.5C814 466.3 857 463.7 878.5 462.3L900 461L900 601L878.5 601C857 601 814 601 771.2 601C728.3 601 685.7 601 642.8 601C600 601 557 601 514.2 601C471.3 601 428.7 601 385.8 601C343 601 300 601 257.2 601C214.3 601 171.7 601 128.8 601C86 601 43 601 21.5 601L0 601Z" fill="#243c3e" stroke-linecap="round" stroke-linejoin="miter"></path></svg>